<?xml version="1.0" encoding="UTF-8"?>
<svg id="Layer_1" data-name="Layer 1"
  xmlns="http://www.w3.org/2000/svg"
  xmlns:xlink="http://www.w3.org/1999/xlink" viewBox="0 0 5000 5775">
  <defs>
    <style>
      .cls-1 {
        fill: none;
      }

      .cls-1, .cls-2 {
        stroke-width: 0px;
      }

      .cls-2 {
        fill: #0F0F11;
      }

      .cls-3 {
        clip-path: url(#clippath);
      }
    </style>
    <clipPath id="clippath">
      <rect class="cls-1" x="0" y="2.75" width="5000" height="5773.5"/>
    </clipPath>
  </defs>
  <g class="cls-3">
    <g>
      <path class="cls-2" d="M2500,5872.09l-888.66-1539.21,888.66-1539.21,888.66,1539.21-888.66,1539.21ZM1722,4332.88l778,1347.54,778-1347.54-778-1347.54-778,1347.54Z"/>
      <path class="cls-2" d="M2500,5390.96l-749.77-1298.65,749.77-1298.65,749.78,1298.65-749.78,1298.65ZM1860.89,4092.31l639.11,1106.98,639.12-1106.98-639.12-1106.98-639.11,1106.98Z"/>
      <path class="cls-2" d="M2500,4909.83l-610.88-1058.08,610.88-1058.09,610.88,1058.09-610.88,1058.08ZM1999.77,3851.75l500.23,866.41,500.22-866.41-500.22-866.42-500.23,866.42Z"/>
      <path class="cls-2" d="M2500,4428.71l-472-817.52,472-817.52,472,817.52-472,817.52ZM2138.66,3611.19l361.34,625.85,361.34-625.85-361.34-625.85-361.34,625.85Z"/>
      <path class="cls-2" d="M2500,3947.59l-333.11-576.96,333.11-576.96,333.11,576.96-333.11,576.96ZM2277.55,3370.62l222.45,385.29,222.45-385.29-222.45-385.29-222.45,385.29Z"/>
      <path class="cls-2" d="M2500,3466.46l-194.22-336.39,194.22-336.4,194.22,336.4-194.22,336.39ZM2416.44,3130.06l83.56,144.73,83.56-144.73-83.56-144.73-83.56,144.73Z"/>
    </g>
    <g>
      <path class="cls-2" d="M2500,2985.33l-888.66-1539.21L2500-93.08l888.66,1539.21-888.66,1539.21ZM1722,1446.12l778,1347.54,778-1347.54L2500,98.58l-778,1347.54Z"/>
      <path class="cls-2" d="M2500,2504.21l-749.77-1298.65L2500-93.08l749.78,1298.65-749.78,1298.65ZM1860.89,1205.56l639.11,1106.98,639.12-1106.98L2500,98.58l-639.11,1106.98Z"/>
      <path class="cls-2" d="M2500,2023.08l-610.88-1058.09L2500-93.08l610.88,1058.08-610.88,1058.09ZM1999.77,965l500.23,866.42,500.22-866.42-500.22-866.42-500.23,866.42Z"/>
      <path class="cls-2" d="M2500,1541.96l-472-817.52,472-817.52,472,817.52-472,817.52ZM2138.66,724.44l361.34,625.85,361.34-625.85-361.34-625.85-361.34,625.85Z"/>
      <path class="cls-2" d="M2500,1060.83l-333.11-576.96,333.11-576.96,333.11,576.96-333.11,576.96ZM2277.55,483.87l222.45,385.29,222.45-385.29-222.45-385.29-222.45,385.29Z"/>
      <path class="cls-2" d="M2500,579.71l-194.22-336.4,194.22-336.4,194.22,336.4-194.22,336.4ZM2416.44,243.31l83.56,144.73,83.56-144.73-83.56-144.73-83.56,144.73Z"/>
    </g>
    <g>
      <path class="cls-2" d="M5083,4380.79h-1777.33l-888.66-1539.21h1777.33l888.66,1539.21ZM3361,4284.96h1556.01l-778-1347.54h-1556.01l778,1347.54Z"/>
      <path class="cls-2" d="M5083,4380.79h-1499.55l-749.78-1298.65h1499.55l749.78,1298.65ZM3638.78,4284.96h1278.23l-639.12-1106.98h-1278.23l639.12,1106.98Z"/>
      <path class="cls-2" d="M5083,4380.79h-1221.77l-610.88-1058.09h1221.77l610.88,1058.09ZM3916.55,4284.96h1000.45l-500.22-866.42h-1000.45l500.22,866.42Z"/>
      <path class="cls-2" d="M5083,4380.79h-943.99l-472-817.52h943.99l472,817.52ZM4194.33,4284.96h722.67l-361.34-625.85h-722.67l361.34,625.85Z"/>
      <path class="cls-2" d="M5083,4380.79h-666.22l-333.11-576.96h666.22l333.11,576.96ZM4472.11,4284.96h444.89l-222.45-385.29h-444.89l222.45,385.29Z"/>
      <path class="cls-2" d="M5082.99,4380.79h-388.44l-194.21-336.4h388.44l194.21,336.4ZM4749.89,4284.96h167.12l-83.56-144.73h-167.12l83.56,144.73Z"/>
    </g>
    <g>
      <path class="cls-2" d="M2582.99,2937.42H805.67L-82.99,1398.21h1777.33l888.66,1539.21ZM861,2841.58h1556.01l-778.01-1347.54H82.99l778.01,1347.54Z"/>
      <path class="cls-2" d="M2582.99,2937.42h-1499.55L333.67,1638.77h1499.55l749.77,1298.65ZM1138.77,2841.58h1278.23l-639.12-1106.98H499.66l639.12,1106.98Z"/>
      <path class="cls-2" d="M2582.99,2937.42h-1221.77l-610.88-1058.08h1221.77l610.89,1058.08ZM1416.55,2841.58h1000.45l-500.23-866.42h-1000.45l500.23,866.42Z"/>
      <path class="cls-2" d="M2582.99,2937.42h-943.99l-472-817.52h943.99l472,817.52ZM1694.33,2841.58h722.67l-361.34-625.85h-722.67l361.34,625.85Z"/>
      <path class="cls-2" d="M2582.99,2937.42h-666.22l-333.11-576.96h666.22l333.11,576.96ZM1972.11,2841.58h444.9l-222.45-385.29h-444.9l222.45,385.29Z"/>
      <path class="cls-2" d="M2582.99,2937.42h-388.44l-194.22-336.4h388.44l194.22,336.4ZM2249.89,2841.58h167.12l-83.56-144.73h-167.12l83.56,144.73Z"/>
    </g>
    <g>
      <path class="cls-2" d="M1694.33,4380.79H-82.99l888.66-1539.21h1777.33l-888.66,1539.21ZM82.99,4284.96h1556.01l778.01-1347.54H861L82.99,4284.96Z"/>
      <path class="cls-2" d="M1416.55,4380.79H-82.99l749.77-1298.65h1499.55l-749.77,1298.65ZM82.99,4284.96h1278.23l639.12-1106.98H722.11L82.99,4284.96Z"/>
      <path class="cls-2" d="M1138.78,4380.79H-82.99l610.88-1058.09h1221.77l-610.88,1058.09ZM82.99,4284.96h1000.45l500.23-866.42h-1000.45l-500.23,866.42Z"/>
      <path class="cls-2" d="M861,4380.79H-82.99l472-817.52h943.99l-472,817.52ZM82.99,4284.96h722.67l361.34-625.85H444.33l-361.34,625.85Z"/>
      <path class="cls-2" d="M583.22,4380.79H-82.99l333.11-576.96h666.22l-333.11,576.96ZM82.99,4284.96h444.9l222.45-385.29h-444.9l-222.45,385.29Z"/>
      <path class="cls-2" d="M305.44,4380.79H-82.99l194.22-336.4h388.44l-194.22,336.4ZM82.99,4284.96h167.12l83.56-144.73h-167.12l-83.56,144.73Z"/>
    </g>
    <g>
      <path class="cls-2" d="M4194.33,2937.42h-1777.33l888.66-1539.21h1777.33l-888.66,1539.21ZM2582.99,2841.58h1556.01l778-1347.54h-1556.01l-778,1347.54Z"/>
      <path class="cls-2" d="M3916.55,2937.42h-1499.55l749.77-1298.65h1499.55l-749.78,1298.65ZM2582.99,2841.58h1278.23l639.12-1106.98h-1278.23l-639.12,1106.98Z"/>
      <path class="cls-2" d="M3638.78,2937.42h-1221.77l610.88-1058.08h1221.77l-610.88,1058.08ZM2582.99,2841.58h1000.45l500.22-866.42h-1000.45l-500.22,866.42Z"/>
      <path class="cls-2" d="M3361,2937.42h-943.99l472-817.52h943.99l-472,817.52ZM2582.99,2841.58h722.67l361.34-625.85h-722.67l-361.34,625.85Z"/>
      <path class="cls-2" d="M3083.22,2937.42h-666.21l333.11-576.96h666.22l-333.11,576.96ZM2582.99,2841.58h444.89l222.45-385.29h-444.89l-222.45,385.29Z"/>
      <path class="cls-2" d="M2805.44,2937.42h-388.44l194.22-336.4h388.44l-194.22,336.4ZM2582.99,2841.58h167.12l83.56-144.73h-167.12l-83.56,144.73Z"/>
    </g>
    <g>
      <path class="cls-2" d="M5000,4428.71l-888.66-1539.21,888.66-1539.21,888.66,1539.21-888.66,1539.21ZM4222,2889.5l778,1347.54,778-1347.54-778-1347.54-778,1347.54Z"/>
      <path class="cls-2" d="M5000,3947.59l-749.78-1298.65,749.78-1298.65,749.78,1298.65-749.78,1298.65ZM4360.88,2648.94l639.12,1106.98,639.12-1106.98-639.12-1106.98-639.12,1106.98Z"/>
      <path class="cls-2" d="M5000,3466.46l-610.88-1058.08,610.88-1058.08,610.88,1058.09-610.88,1058.08ZM4499.78,2408.37l500.22,866.42,500.22-866.41-500.22-866.42-500.22,866.42Z"/>
      <path class="cls-2" d="M5000,2985.33l-472-817.52,472-817.52,472,817.52-472,817.52ZM4638.66,2167.81l361.34,625.85,361.34-625.85-361.34-625.85-361.34,625.85Z"/>
      <path class="cls-2" d="M5000,2504.21l-333.11-576.96,333.11-576.96,333.11,576.96-333.11,576.96ZM4777.55,1927.25l222.45,385.29,222.45-385.29-222.45-385.29-222.45,385.29Z"/>
      <path class="cls-2" d="M5000,2023.08l-194.22-336.4,194.22-336.4,194.22,336.4-194.22,336.4ZM4916.44,1686.69l83.56,144.73,83.56-144.73-83.56-144.73-83.56,144.73Z"/>
    </g>
    <g>
      <path class="cls-2" d="M0,4428.71l-888.66-1539.21L0,1350.29l888.66,1539.21L0,4428.71ZM-778,2889.5L0,4237.04l778-1347.54L0,1541.96l-778,1347.54Z"/>
      <path class="cls-2" d="M0,3947.59l-749.77-1298.65L0,1350.29l749.78,1298.65L0,3947.59ZM-639.11,2648.94L0,3755.92l639.12-1106.98L0,1541.96l-639.11,1106.98Z"/>
      <path class="cls-2" d="M0,3466.46l-610.88-1058.08L0,1350.29l610.88,1058.09L0,3466.46ZM-500.23,2408.37L0,3274.79l500.23-866.41L0,1541.96l-500.23,866.42Z"/>
      <path class="cls-2" d="M0,2985.33l-472-817.52L0,1350.29l472,817.52L0,2985.33ZM-361.34,2167.81L0,2793.67l361.34-625.85L0,1541.96l-361.34,625.85Z"/>
      <path class="cls-2" d="M0,2504.21l-333.11-576.96L0,1350.29l333.11,576.96L0,2504.21ZM-222.45,1927.25L0,2312.54l222.45-385.29L0,1541.96l-222.45,385.29Z"/>
      <path class="cls-2" d="M0,2023.08l-194.22-336.4L0,1350.29l194.22,336.4L0,2023.08ZM-83.56,1686.69L0,1831.42l83.56-144.73L0,1541.96l-83.56,144.73Z"/>
    </g>
    <g>
      <path class="cls-2" d="M4194.33,5824.17h-1777.33l888.66-1539.21h1777.33l-888.66,1539.21ZM2582.99,5728.34h1556.01l778-1347.54h-1556.01l-778,1347.54Z"/>
      <path class="cls-2" d="M3916.55,5824.17h-1499.55l749.77-1298.65h1499.55l-749.78,1298.65ZM2582.99,5728.34h1278.23l639.12-1106.98h-1278.23l-639.12,1106.98Z"/>
      <path class="cls-2" d="M3638.78,5824.17h-1221.77l610.88-1058.08h1221.77s-610.88,1058.08-610.88,1058.08ZM2582.99,5728.34h1000.45l500.22-866.42h-1000.45s-500.22,866.42-500.22,866.42Z"/>
      <path class="cls-2" d="M3361,5824.17h-943.99l472-817.52h943.99l-472,817.52ZM2582.99,5728.34h722.67l361.34-625.85h-722.67l-361.34,625.85Z"/>
      <path class="cls-2" d="M3083.22,5824.17h-666.21l333.11-576.96h666.22l-333.11,576.96ZM2582.99,5728.34h444.89l222.45-385.29h-444.89l-222.45,385.29Z"/>
      <path class="cls-2" d="M2805.44,5824.17h-388.44l194.22-336.39h388.44l-194.22,336.39ZM2582.99,5728.34h167.12l83.56-144.73h-167.12l-83.56,144.73Z"/>
    </g>
    <g>
      <path class="cls-2" d="M2582.99,5824.17H805.67L-82.99,4284.96h1777.33l888.66,1539.21ZM861,5728.34h1556.01l-778.01-1347.54H82.99l778.01,1347.54Z"/>
      <path class="cls-2" d="M2582.99,5824.17h-1499.55l-749.77-1298.65h1499.55l749.77,1298.65ZM1138.77,5728.34h1278.23l-639.12-1106.98H499.66l639.12,1106.98Z"/>
      <path class="cls-2" d="M2582.99,5824.17h-1221.77l-610.88-1058.09h1221.77s610.89,1058.09,610.89,1058.09ZM1416.55,5728.34h1000.45l-500.23-866.41h-1000.45s500.23,866.41,500.23,866.41Z"/>
      <path class="cls-2" d="M2582.99,5824.17h-943.99l-472-817.52h943.99l472,817.52ZM1694.33,5728.34h722.67l-361.34-625.85h-722.67l361.34,625.85Z"/>
      <path class="cls-2" d="M2582.99,5824.17h-666.22l-333.11-576.96h666.22l333.11,576.96ZM1972.11,5728.34h444.9l-222.45-385.29h-444.9l222.45,385.29Z"/>
      <path class="cls-2" d="M2582.99,5824.17h-388.44l-194.22-336.39h388.44l194.22,336.39ZM2249.89,5728.34h167.12l-83.56-144.73h-167.12l83.56,144.73Z"/>
    </g>
    <g>
      <path class="cls-2" d="M5083,1494.04h-1777.33L2417.01-45.17h1777.33l888.66,1539.21ZM3361,1398.21h1556.01L4139,50.67h-1556.01l778,1347.54Z"/>
      <path class="cls-2" d="M5083,1494.04h-1499.55L2833.67,195.39h1499.55l749.78,1298.65ZM3638.78,1398.21h1278.23l-639.12-1106.98h-1278.23l639.12,1106.98Z"/>
      <path class="cls-2" d="M5083,1494.04h-1221.77l-610.88-1058.08h1221.77l610.88,1058.08ZM3916.55,1398.21h1000.45l-500.22-866.42h-1000.45l500.22,866.42Z"/>
      <path class="cls-2" d="M5083,1494.04h-943.99l-472-817.52h943.99l472,817.52ZM4194.33,1398.21h722.67l-361.34-625.85h-722.67l361.34,625.85Z"/>
      <path class="cls-2" d="M5083,1494.04h-666.22l-333.11-576.96h666.22s333.11,576.96,333.11,576.96ZM4472.11,1398.21h444.89l-222.45-385.29h-444.89s222.45,385.29,222.45,385.29Z"/>
      <path class="cls-2" d="M5083,1494.04h-388.44l-194.22-336.4h388.44l194.22,336.4ZM4749.89,1398.21h167.12l-83.56-144.73h-167.12l83.56,144.73Z"/>
    </g>
    <g>
      <path class="cls-2" d="M1694.33,1494.04H-82.99L805.67-45.17h1777.33l-888.66,1539.21ZM82.99,1398.21h1556.01L2417.01,50.67H861L82.99,1398.21Z"/>
      <path class="cls-2" d="M1416.55,1494.04H-82.99L666.78,195.39h1499.55l-749.77,1298.65ZM82.99,1398.21h1278.23L2000.34,291.23H722.11L82.99,1398.21Z"/>
      <path class="cls-2" d="M1138.78,1494.04H-82.99L527.89,435.96h1221.77l-610.88,1058.08ZM82.99,1398.21h1000.45l500.23-866.42h-1000.45L82.99,1398.21Z"/>
      <path class="cls-2" d="M861,1494.04H-82.99l472-817.52h943.99l-472,817.52ZM82.99,1398.21h722.67l361.34-625.85H444.33L82.99,1398.21Z"/>
      <path class="cls-2" d="M583.22,1494.04H-82.99L250.11,917.08h666.22s-333.11,576.96-333.11,576.96ZM82.99,1398.21h444.9l222.45-385.29h-444.9s-222.45,385.29-222.45,385.29Z"/>
      <path class="cls-2" d="M305.44,1494.04H-82.99l194.22-336.4h388.44l-194.22,336.4ZM82.99,1398.21h167.12l83.56-144.73h-167.12l-83.56,144.73Z"/>
    </g>
    <g>
      <path class="cls-2" d="M0,7315.46l-888.66-1539.21L0,4237.04l888.66,1539.21L0,7315.46ZM-778,5776.25L0,7123.79l778-1347.54L0,4428.71l-778.01,1347.54Z"/>
      <path class="cls-2" d="M0,6834.34l-749.77-1298.65L0,4237.04l749.77,1298.65L0,6834.34ZM-639.11,5535.69L0,6642.67l639.12-1106.98L0,4428.71l-639.12,1106.98Z"/>
      <path class="cls-2" d="M0,6353.21l-610.88-1058.09L0,4237.04l610.88,1058.09L0,6353.21ZM-500.23,5295.13L0,6161.55l500.23-866.42L0,4428.71l-500.23,866.42Z"/>
      <path class="cls-2" d="M0,5872.09l-472-817.52L0,4237.04l472,817.52L0,5872.09ZM-361.34,5054.56L0,5680.42l361.34-625.85L0,4428.71l-361.34,625.85Z"/>
      <path class="cls-2" d="M0,5390.96l-333.11-576.96L0,4237.04l333.11,576.96L0,5390.96ZM-222.45,4814L0,5199.29l222.45-385.29L0,4428.71l-222.45,385.29Z"/>
      <path class="cls-2" d="M0,4909.84l-194.22-336.4L0,4237.04l194.22,336.4L0,4909.84ZM-83.56,4573.44L0,4718.17l83.56-144.73L0,4428.71l-83.56,144.73Z"/>
    </g>
    <g>
      <path class="cls-2" d="M0,1541.96L-888.66,2.75,0-1536.46,888.66,2.75,0,1541.96ZM-778,2.75L0,1350.29,778,2.75,0-1344.79-778,2.75Z"/>
      <path class="cls-2" d="M0,1060.83L-749.78-237.81,0-1536.46,749.77-237.81,0,1060.83ZM-639.11-237.81L0,869.17,639.11-237.81,0-1344.79-639.11-237.81Z"/>
      <path class="cls-2" d="M0,579.71L-610.89-478.38,0-1536.46,610.88-478.38,0,579.71ZM-500.23-478.38L0,388.04,500.22-478.38,0-1344.79-500.23-478.38Z"/>
      <path class="cls-2" d="M0,98.58l-472-817.52L0-1536.46l472,817.52L0,98.58ZM-361.34-718.94L0-93.08l361.34-625.85L0-1344.79l-361.34,625.85Z"/>
    </g>
    <g>
      <path class="cls-2" d="M5000,7315.46l-888.66-1539.21,888.66-1539.21,888.66,1539.21-888.66,1539.21ZM4222,5776.25l778,1347.54,778-1347.54-778-1347.54-778,1347.54Z"/>
      <path class="cls-2" d="M5000,6834.34l-749.78-1298.65,749.78-1298.65,749.78,1298.65-749.78,1298.65ZM4360.88,5535.69l639.12,1106.98,639.12-1106.98-639.12-1106.98-639.12,1106.98Z"/>
      <path class="cls-2" d="M5000,6353.21l-610.88-1058.08,610.88-1058.09,610.88,1058.09-610.88,1058.08ZM4499.78,5295.13l500.22,866.41,500.22-866.41-500.22-866.42-500.22,866.42Z"/>
      <path class="cls-2" d="M5000,5872.09l-472-817.52,472-817.52,472,817.52-472,817.52ZM4638.66,5054.56l361.34,625.85,361.34-625.85-361.34-625.85-361.34,625.85Z"/>
      <path class="cls-2" d="M5000,5390.96l-333.11-576.96,333.11-576.96,333.11,576.96-333.11,576.96ZM4777.55,4814l222.45,385.29,222.45-385.29-222.45-385.29-222.45,385.29Z"/>
      <path class="cls-2" d="M5000,4909.83l-194.22-336.39,194.22-336.4,194.22,336.4-194.22,336.39ZM4916.44,4573.44l83.56,144.73,83.56-144.73-83.56-144.73-83.56,144.73Z"/>
    </g>
    <g>
      <path class="cls-2" d="M5000,1541.96L4111.34,2.75l888.66-1539.21L5888.66,2.75l-888.66,1539.21ZM4222,2.75l778,1347.54L5778,2.75l-778-1347.54L4222,2.75Z"/>
      <path class="cls-2" d="M5000,1060.83l-749.78-1298.65,749.78-1298.65,749.77,1298.65-749.77,1298.65ZM4360.88-237.82l639.12,1106.98,639.11-1106.98-639.11-1106.98-639.12,1106.98Z"/>
      <path class="cls-2" d="M5000,579.71l-610.88-1058.08,610.88-1058.08,610.88,1058.08-610.88,1058.08ZM4499.78-478.38l500.22,866.42,500.22-866.42-500.22-866.42-500.22,866.42Z"/>
      <path class="cls-2" d="M5000,98.58l-472-817.52,472-817.52,472,817.52-472,817.52ZM4638.66-718.94l361.34,625.85,361.34-625.85-361.34-625.85-361.34,625.85Z"/>
    </g>
  </g>
</svg>